<svg xmlns="http://www.w3.org/2000/svg" xmlns:xlink="http://www.w3.org/1999/xlink" viewBox="0 0 389.67 375.45"><defs><style>.cls-1,.cls-16,.cls-18,.cls-24,.cls-25,.cls-31,.cls-32,.cls-33,.cls-34{fill:none;}.cls-2{isolation:isolate;}.cls-3{clip-path:url(#clip-path);}.cls-11,.cls-4{fill:#fff;}.cls-33,.cls-4{stroke:#fff;}.cls-16,.cls-31,.cls-32,.cls-4{stroke-miterlimit:10;}.cls-5{fill:#eaeaea;}.cls-6{fill:#5a33e4;}.cls-7{fill:#574b90;opacity:0.51;}.cls-10,.cls-8{fill:#f5f5f5;}.cls-15,.cls-23,.cls-8{mix-blend-mode:multiply;}.cls-15,.cls-9{fill:#d3d3d3;}.cls-12{font-size:3.74px;fill:#467cfb;font-family:Montserrat-ExtraBold, Montserrat ExtraBold;font-weight:800;}.cls-13{letter-spacing:-0.02em;}.cls-14{letter-spacing:0em;}.cls-16{stroke:#ddd;}.cls-16,.cls-24{stroke-width:2px;}.cls-17,.cls-23{fill:#ddd;}.cls-18,.cls-24,.cls-25,.cls-32{stroke:#283034;}.cls-18,.cls-24,.cls-25,.cls-33,.cls-34{stroke-linecap:round;stroke-linejoin:round;}.cls-19{fill:#f0c2bf;}.cls-20{fill:#ebebeb;}.cls-21{fill:#b2b2b2;}.cls-22{fill:#f6f6f6;}.cls-25,.cls-32,.cls-33{stroke-width:0.75px;}.cls-26{fill:#d6d6d6;}.cls-27{fill:#283034;}.cls-28{fill:url(#Degradado_sin_nombre_7);}.cls-29{fill:url(#Degradado_sin_nombre_7-2);}.cls-30{fill:#e2948f;}.cls-31{stroke:#d1d1d1;}.cls-34{stroke:#5a33e4;}</style><clipPath id="clip-path" transform="translate(-0.94 -15.27)"><path class="cls-1" d="M15.6,26.07l1.56,155.64C-16.45,221.24,1.62,282.28,51.34,297.13L295.7,358.32c39.78,11.74,114.26-16.47,106.2-56.4l.6-265.13C392-17.29,49.54-3.64,15.6,26.07Z"/></clipPath><linearGradient id="Degradado_sin_nombre_7" x1="196.4" y1="117.3" x2="211.85" y2="113.95" gradientUnits="userSpaceOnUse"><stop offset="0" stop-color="#e2948f"/><stop offset="1" stop-color="#f0c2bf"/></linearGradient><linearGradient id="Degradado_sin_nombre_7-2" x1="179.11" y1="128.7" x2="190.91" y2="151.21" xlink:href="#Degradado_sin_nombre_7"/></defs><g class="cls-2"><g id="Layer_2" data-name="Layer 2"><g id="OBJECTS"><g class="cls-3"><path class="cls-4" d="M178.07,34,18.6,182.14C-15,221.67,3.06,282.71,52.78,297.56l244.36,61.19c39.79,11.74,37.1-23.43,29-63.36L258.34,63C247.83,8.93,212,4.24,178.07,34Z" transform="translate(-0.94 -15.27)"/><path class="cls-5" d="M85.47,225.51V176.24H54.8v49.27L26.28,288.17a9,9,0,0,0,8.15,12.65h71.41A8.94,8.94,0,0,0,114,288.17Z" transform="translate(-0.94 -15.27)"/><path class="cls-6" d="M110.11,288,85.85,234.7h-.06A6.22,6.22,0,0,0,74,233a2.86,2.86,0,0,0-2.17-1,2.91,2.91,0,0,0-2.89,2.71H64.12a4.88,4.88,0,0,0-9.62,0h-.08L30.16,288a6.56,6.56,0,0,0,6,9.27h68A6.56,6.56,0,0,0,110.11,288Z" transform="translate(-0.94 -15.27)"/><path class="cls-6" d="M68,230.25A2.28,2.28,0,1,0,65.72,228,2.27,2.27,0,0,0,68,230.25Z" transform="translate(-0.94 -15.27)"/><circle class="cls-6" cx="74.79" cy="209.42" r="0.7"/><path class="cls-7" d="M57.27,271.86A6.23,6.23,0,1,1,51,265.63,6.23,6.23,0,0,1,57.27,271.86Z" transform="translate(-0.94 -15.27)"/><circle class="cls-7" cx="88.28" cy="273.42" r="7.63"/><circle class="cls-7" cx="68.87" cy="253.3" r="7.63" transform="matrix(0.16, -0.99, 0.99, 0.16, -193.01, 266.64)"/><path class="cls-7" d="M84.31,268a2.71,2.71,0,1,1-2.71-2.72A2.71,2.71,0,0,1,84.31,268Z" transform="translate(-0.94 -15.27)"/><path class="cls-7" d="M59.31,286a1.36,1.36,0,0,1-2.71,0,1.36,1.36,0,1,1,2.71,0Z" transform="translate(-0.94 -15.27)"/><path class="cls-8" d="M114,288.17,85.47,225.51V176.24H76.58v49.27l28.51,62.66A8.94,8.94,0,0,1,97,300.82h8.89A8.94,8.94,0,0,0,114,288.17Z" transform="translate(-0.94 -15.27)"/><rect class="cls-9" x="50.1" y="158.26" width="38.18" height="9.47" rx="1.7"/><path class="cls-10" d="M307.62,131.58h0a4.42,4.42,0,0,1-4.42-4.42v-5.62H289.93v5.62a4.42,4.42,0,0,1-4.43,4.42h0a6,6,0,0,0-6,6v55.31a6,6,0,0,0,6,6h22.12a6,6,0,0,0,6-6V137.62A6,6,0,0,0,307.62,131.58Z" transform="translate(-0.94 -15.27)"/><path class="cls-6" d="M306.59,197.7H286.53a5.83,5.83,0,0,1-5.58-6V144.3s3.19-3.58,16.19,0c9.65,2.66,15,0,15,0v47.36A5.83,5.83,0,0,1,306.59,197.7Z" transform="translate(-0.94 -15.27)"/><rect class="cls-11" x="284.62" y="132.9" width="21.99" height="34.5" rx="2.24"/><text class="cls-12" transform="translate(287.67 150.15)"><tspan class="cls-13">C</tspan><tspan x="2.09" y="0">OVID -19</tspan><tspan class="cls-14" x="3.11" y="4.15">R</tspan><tspan x="5.14" y="4.15">APID</tspan><tspan x="4.25" y="8.3">TEST</tspan></text><rect class="cls-9" x="287.37" y="137.1" width="16.5" height="6.25"/><path class="cls-7" d="M290.43,192.59a3.5,3.5,0,1,1-3.5-3.5A3.5,3.5,0,0,1,290.43,192.59Z" transform="translate(-0.94 -15.27)"/><path class="cls-7" d="M308.28,187.73a1.74,1.74,0,1,1-1.73-1.73A1.73,1.73,0,0,1,308.28,187.73Z" transform="translate(-0.94 -15.27)"/><path class="cls-7" d="M284.38,162a.94.94,0,1,1-.94-.94A.95.95,0,0,1,284.38,162Z" transform="translate(-0.94 -15.27)"/><path class="cls-7" d="M296.22,193.53a.94.94,0,1,1-.94-.94A.94.94,0,0,1,296.22,193.53Z" transform="translate(-0.94 -15.27)"/><path class="cls-8" d="M307.62,131.58a4.42,4.42,0,0,1-4.42-4.42v-5.62h-7v5.62a4.42,4.42,0,0,0,4.42,4.42,6,6,0,0,1,6,6v55.31a6,6,0,0,1-6,6h7a6,6,0,0,0,6-6V137.62A6,6,0,0,0,307.62,131.58Z" transform="translate(-0.94 -15.27)"/><rect class="cls-9" x="285.13" y="102.92" width="20.97" height="6.83" rx="0.79"/><rect class="cls-15" x="286.09" y="103.58" width="1.15" height="5.51"/><rect class="cls-15" x="288.65" y="103.58" width="1.15" height="5.51"/><rect class="cls-15" x="291.21" y="103.58" width="1.15" height="5.51"/><rect class="cls-15" x="293.76" y="103.58" width="1.15" height="5.51"/><rect class="cls-15" x="296.32" y="103.58" width="1.15" height="5.51"/><rect class="cls-15" x="298.88" y="103.58" width="1.15" height="5.51"/><rect class="cls-15" x="301.44" y="103.58" width="1.15" height="5.51"/><rect class="cls-15" x="304" y="103.58" width="1.15" height="5.51"/><path class="cls-10" d="M346.55,131.58h0a4.42,4.42,0,0,1-4.42-4.42v-5.62H328.86v5.62a4.42,4.42,0,0,1-4.43,4.42h0a6,6,0,0,0-6,6v55.31a6,6,0,0,0,6,6h22.12a6,6,0,0,0,6-6V137.62A6,6,0,0,0,346.55,131.58Z" transform="translate(-0.94 -15.27)"/><path class="cls-6" d="M345.52,197.7h-20a5.83,5.83,0,0,1-5.59-6V144.3s3.19-3.58,16.19,0c9.66,2.66,15,0,15,0v47.36A5.83,5.83,0,0,1,345.52,197.7Z" transform="translate(-0.94 -15.27)"/><rect class="cls-11" x="323.55" y="132.9" width="21.99" height="34.5" rx="2.24"/><text class="cls-12" transform="translate(326.6 150.15)"><tspan class="cls-13">C</tspan><tspan x="2.09" y="0">OVID -19</tspan><tspan class="cls-14" x="3.11" y="4.15">R</tspan><tspan x="5.14" y="4.15">APID</tspan><tspan x="4.25" y="8.3">TEST</tspan></text><rect class="cls-9" x="326.3" y="137.1" width="16.5" height="6.25"/><path class="cls-7" d="M329.36,192.59a3.5,3.5,0,1,1-3.5-3.5A3.5,3.5,0,0,1,329.36,192.59Z" transform="translate(-0.94 -15.27)"/><path class="cls-7" d="M347.22,187.73a1.74,1.74,0,1,1-1.74-1.73A1.74,1.74,0,0,1,347.22,187.73Z" transform="translate(-0.94 -15.27)"/><path class="cls-7" d="M323.31,162a.94.94,0,1,1-.94-.94A.94.94,0,0,1,323.31,162Z" transform="translate(-0.94 -15.27)"/><path class="cls-7" d="M335.16,193.53a.94.94,0,1,1-.94-.94A.95.95,0,0,1,335.16,193.53Z" transform="translate(-0.94 -15.27)"/><path class="cls-8" d="M346.55,131.58a4.42,4.42,0,0,1-4.42-4.42v-5.62h-7v5.62a4.42,4.42,0,0,0,4.42,4.42,6,6,0,0,1,6,6v55.31a6,6,0,0,1-6,6h7a6,6,0,0,0,6-6V137.62A6,6,0,0,0,346.55,131.58Z" transform="translate(-0.94 -15.27)"/><rect class="cls-9" x="324.07" y="102.92" width="20.97" height="6.83" rx="0.79"/><rect class="cls-15" x="325.02" y="103.58" width="1.15" height="5.51"/><rect class="cls-15" x="327.58" y="103.58" width="1.15" height="5.51"/><rect class="cls-15" x="330.14" y="103.58" width="1.15" height="5.51"/><rect class="cls-15" x="332.7" y="103.58" width="1.15" height="5.51"/><rect class="cls-15" x="335.25" y="103.58" width="1.15" height="5.51"/><rect class="cls-15" x="337.81" y="103.58" width="1.15" height="5.51"/><rect class="cls-15" x="340.37" y="103.58" width="1.15" height="5.51"/><rect class="cls-15" x="342.93" y="103.58" width="1.15" height="5.51"/><path class="cls-6" d="M137.15,102.35A6.45,6.45,0,0,0,126,98.77a4.12,4.12,0,0,1-3,1.38h-.68a4,4,0,0,1-3.94-3.29c-.17-1-.37-1.89-.62-2.83a3,3,0,0,1,1.71-3.56l.31-.13a3,3,0,0,1,2.3,0,3.53,3.53,0,1,0-2-4.63,3,3,0,0,1-5.47.34,35.63,35.63,0,0,0-2-3.26,4.51,4.51,0,0,1,.58-5.72h0a4.56,4.56,0,0,1,3.39-1.32,6.46,6.46,0,1,0-6.27-6.27,4.52,4.52,0,0,1-7.09,3.91c-.68-.46-1.38-.9-2.08-1.32a3,3,0,0,1-1.32-3.72l.12-.3a3,3,0,0,1,1.61-1.66,3.55,3.55,0,0,0,2.07-2.77,3.53,3.53,0,1,0-6.72,1,2.83,2.83,0,0,1,0,2.23h0a3,3,0,0,1-3.69,1.77,36.32,36.32,0,0,0-4-.94,4,4,0,0,1-3.38-3.95V63a4.11,4.11,0,0,1,1.37-3,6.46,6.46,0,1,0-8.74,0A4.21,4.21,0,0,1,79.87,63v.67a4,4,0,0,1-3.28,3.94c-1,.17-1.89.37-2.83.62a3,3,0,0,1-3.56-1.71l-.13-.31a3,3,0,0,1,0-2.3,3.53,3.53,0,1,0-4.63,2,3,3,0,0,1,.34,5.47,34.32,34.32,0,0,0-3.26,2,4.51,4.51,0,0,1-5.72-.58h0a4.56,4.56,0,0,1-1.32-3.39,6.46,6.46,0,1,0-6.27,6.27,4.52,4.52,0,0,1,3.91,7.09c-.46.68-.9,1.38-1.32,2.08A3,3,0,0,1,48,86.2l-.3-.12a3,3,0,0,1-1.66-1.61,3.55,3.55,0,0,0-2.77-2.07,3.53,3.53,0,1,0,1,6.72,2.83,2.83,0,0,1,2.23,0h0a3,3,0,0,1,1.77,3.69,36.32,36.32,0,0,0-.94,4,4.18,4.18,0,0,1-4.15,3.39h-.42a4.28,4.28,0,0,1-3.13-1.43A6.46,6.46,0,1,0,35,109.58a5,5,0,0,0,4-2.33,4.29,4.29,0,0,1,3.43-1.81h.52a4.15,4.15,0,0,1,4,3c.36,1.3.79,2.61,1.07,3.72a3,3,0,0,1-1.7,3.56l-.31.13a3,3,0,0,1-2.3,0,3.53,3.53,0,1,0,.14,6.53,3.47,3.47,0,0,0,1.85-1.9,3.1,3.1,0,0,1,1.61-1.69,3,3,0,0,1,3.87,1.35,35.78,35.78,0,0,0,2,3.27,4.5,4.5,0,0,1-.58,5.71h0a4.56,4.56,0,0,1-3.39,1.32,6.46,6.46,0,1,0,6.27,6.27,4.52,4.52,0,0,1,7.09-3.91c.68.46,1.38.9,2.08,1.32a3,3,0,0,1,1.32,3.72l-.12.3a3,3,0,0,1-1.61,1.66,3.55,3.55,0,0,0-2.07,2.77,3.53,3.53,0,1,0,6.72-1,2.83,2.83,0,0,1,0-2.23h0a3,3,0,0,1,3.69-1.77,36.7,36.7,0,0,0,4,.94,4,4,0,0,1,3.39,4v.69a4.11,4.11,0,0,1-1.37,3,6.46,6.46,0,1,0,8.74,0,4.22,4.22,0,0,1-1.43-3.07v-.67a4,4,0,0,1,3.29-3.94c1-.17,1.89-.37,2.83-.61a3,3,0,0,1,3.56,1.7l.13.31a3,3,0,0,1,0,2.3,3.53,3.53,0,1,0,6.53-.14,3.47,3.47,0,0,0-1.9-1.85,3.1,3.1,0,0,1-1.69-1.61,3,3,0,0,1,1.35-3.87,35.63,35.63,0,0,0,3.26-2,4.51,4.51,0,0,1,5.72.58h0a4.56,4.56,0,0,1,1.32,3.39,6.46,6.46,0,1,0,6.27-6.27,4.52,4.52,0,0,1-3.91-7.09c.46-.68.9-1.38,1.32-2.08a3,3,0,0,1,3.72-1.32l.3.12a3,3,0,0,1,1.66,1.61,3.55,3.55,0,0,0,2.77,2.07,3.53,3.53,0,1,0-1-6.72,2.83,2.83,0,0,1-2.23,0h0a3,3,0,0,1-1.77-3.69,36.7,36.7,0,0,0,.94-4,4,4,0,0,1,4-3.39h.68a4.21,4.21,0,0,1,3.07,1.42,6.46,6.46,0,0,0,11.15-5.16Z" transform="translate(-0.94 -15.27)"/><path class="cls-7" d="M64.54,118.3c1.76-1.51,4.77-.92,6.72,1.34s2.1,5.31.34,6.83-4.76.92-6.71-1.33S62.79,119.82,64.54,118.3Z" transform="translate(-0.94 -15.27)"/><path class="cls-7" d="M92.16,78.59c-.19,1.61-2,2.71-4.09,2.46s-3.59-1.75-3.4-3.36,2-2.71,4.1-2.47S92.35,77,92.16,78.59Z" transform="translate(-0.94 -15.27)"/><path class="cls-7" d="M69.77,105.67c-1.58-.35-2.5-2.28-2-4.31s2.09-3.4,3.68-3,2.5,2.28,2,4.31S71.36,106,69.77,105.67Z" transform="translate(-0.94 -15.27)"/><path class="cls-7" d="M89.48,129a1.68,1.68,0,1,1,2,.41A1.48,1.48,0,0,1,89.48,129Z" transform="translate(-0.94 -15.27)"/><path class="cls-7" d="M55.31,88.27c2.3-.35,4.52,1.76,5,4.71s-1.05,5.62-3.35,6-4.52-1.76-5-4.7S53,88.62,55.31,88.27Z" transform="translate(-0.94 -15.27)"/><path class="cls-7" d="M111,98c3.71.58,6.12,4.91,5.38,9.67s-4.34,8.17-8,7.59-6.13-4.9-5.39-9.67S107.27,97.38,111,98Z" transform="translate(-0.94 -15.27)"/><path class="cls-7" d="M87.15,98c2.37-1.18,5.53.33,7,3.37s.82,6.48-1.55,7.66-5.53-.33-7.05-3.38S84.78,99.19,87.15,98Z" transform="translate(-0.94 -15.27)"/><path class="cls-6" d="M268.89,106.9a2.32,2.32,0,0,0-.39-4.19,1.48,1.48,0,0,1-.88-.8l-.09-.23a1.4,1.4,0,0,1,.53-1.75q.44-.29.84-.6a1.08,1.08,0,0,1,1.41.06l.09.08a1.09,1.09,0,0,1,.34.76,1.23,1.23,0,0,0,.57,1,1.26,1.26,0,0,0,1.44,0,1.28,1.28,0,0,0,.12-1.95,1.25,1.25,0,0,0-.88-.34,1.12,1.12,0,0,1-.79-.29,1.08,1.08,0,0,1-.09-1.47,13,13,0,0,0,.79-1.11,1.61,1.61,0,0,1,2-.61h0a1.66,1.66,0,0,1,.91.93,2.31,2.31,0,1,0,1.19-3,1.63,1.63,0,0,1-2.29-1.79q.09-.43.15-.87a1.07,1.07,0,0,1,1-1H275a1.11,1.11,0,0,1,.77.3,1.27,1.27,0,1,0-.07-1.78,1,1,0,0,1-.74.32h0a1.08,1.08,0,0,1-1.1-1,14.46,14.46,0,0,0-.25-1.44,1.46,1.46,0,0,1,.83-1.67l.23-.09a1.42,1.42,0,0,1,1.19,0,2.3,2.3,0,0,0,2.17-.13,2.32,2.32,0,1,0-3.38-2.76,1.57,1.57,0,0,1-.81.9l-.23.09a1.44,1.44,0,0,1-1.76-.53,8,8,0,0,0-.6-.84,1.1,1.1,0,0,1,.07-1.42l.08-.08a1.09,1.09,0,0,1,.76-.34,1.24,1.24,0,0,0,1-.57,1.26,1.26,0,1,0-2.32-.68,1.18,1.18,0,0,1-.29.79,1.09,1.09,0,0,1-1.47.09,12.39,12.39,0,0,0-1.11-.79,1.63,1.63,0,0,1-.62-2h0a1.6,1.6,0,0,1,.93-.91,2.31,2.31,0,0,0,.27-4.18,2.31,2.31,0,0,0-3.26,1.16,2.28,2.28,0,0,0,0,1.83,1.63,1.63,0,0,1-1.79,2.29q-.44-.09-.87-.15a1.07,1.07,0,0,1-.95-1v-.12a1.07,1.07,0,0,1,.3-.77,1.27,1.27,0,1,0-1.78.07,1,1,0,0,1,.32.74h0a1.08,1.08,0,0,1-1,1.1,14.41,14.41,0,0,0-1.44.24,1.49,1.49,0,0,1-1.7-.89l-.05-.14a1.51,1.51,0,0,1,0-1.23,2.32,2.32,0,1,0-4.25,0,1.79,1.79,0,0,0,1.33,1,1.53,1.53,0,0,1,1.08.88l.07.17a1.48,1.48,0,0,1-.44,1.75c-.38.3-.75.62-1.08.87a1.08,1.08,0,0,1-1.41-.06l-.08-.08a1.09,1.09,0,0,1-.34-.76,1.23,1.23,0,0,0-.57-1,1.26,1.26,0,0,0-1.56,2,1.23,1.23,0,0,0,.88.35,1.15,1.15,0,0,1,.79.29,1.09,1.09,0,0,1,.09,1.47,11.1,11.1,0,0,0-.79,1.11,1.61,1.61,0,0,1-2,.61h0a1.63,1.63,0,0,1-.91-.93,2.31,2.31,0,1,0-1.19,3,1.63,1.63,0,0,1,2.29,1.79q-.09.44-.15.87a1.07,1.07,0,0,1-1,1h-.12a1.11,1.11,0,0,1-.77-.3,1.27,1.27,0,1,0,.07,1.78,1,1,0,0,1,.73-.32h0a1.09,1.09,0,0,1,1.1,1,12,12,0,0,0,.24,1.44,1.44,1.44,0,0,1-.83,1.67l-.22.09a1.45,1.45,0,0,1-1.19,0,2.32,2.32,0,1,0-.06,4.24,2.34,2.34,0,0,0,1.27-1.35,1.5,1.5,0,0,1,.81-.9l.22-.09a1.43,1.43,0,0,1,1.76.53q.28.44.6.84a1.09,1.09,0,0,1-.06,1.42l-.08.08a1.09,1.09,0,0,1-.76.34,1.23,1.23,0,0,0-1,.57,1.26,1.26,0,1,0,2.32.68,1.14,1.14,0,0,1,.29-.79,1.09,1.09,0,0,1,1.47-.09,11.1,11.1,0,0,0,1.11.79,1.62,1.62,0,0,1,.61,2h0a1.66,1.66,0,0,1-.93.91,2.31,2.31,0,1,0,2.95,1.19,1.63,1.63,0,0,1,1.79-2.29q.44.09.87.15a1.07,1.07,0,0,1,.95,1v.12a1.16,1.16,0,0,1-.3.77,1.27,1.27,0,1,0,1.78-.07,1,1,0,0,1-.32-.74h0a1.07,1.07,0,0,1,1-1.1,13.76,13.76,0,0,0,1.43-.24,1.45,1.45,0,0,1,1.68.82l.09.23a1.46,1.46,0,0,1,0,1.21,2.31,2.31,0,0,0,3.27,3Z" transform="translate(-0.94 -15.27)"/><path class="cls-7" d="M253.45,85.2a2,2,0,1,1-2.2,1.07A1.76,1.76,0,0,1,253.45,85.2Z" transform="translate(-0.94 -15.27)"/><path class="cls-7" d="M270.42,88.74a1.39,1.39,0,0,1-.76-2.59,1.39,1.39,0,0,1,.76,2.59Z" transform="translate(-0.94 -15.27)"/><path class="cls-7" d="M258.35,85.15a1.39,1.39,0,1,1,1.52.79A1.23,1.23,0,0,1,258.35,85.15Z" transform="translate(-0.94 -15.27)"/><path class="cls-7" d="M253.42,94.92a.61.61,0,1,1,.15.72A.52.52,0,0,1,253.42,94.92Z" transform="translate(-0.94 -15.27)"/><path class="cls-7" d="M262.06,78a1.75,1.75,0,0,1-.85,2.29,1.55,1.55,0,1,1,.85-2.29Z" transform="translate(-0.94 -15.27)"/><path class="cls-7" d="M266.67,97.66c.33,1.3-.76,2.7-2.44,3.13s-3.3-.29-3.63-1.6.76-2.7,2.44-3.13S266.34,96.35,266.67,97.66Z" transform="translate(-0.94 -15.27)"/><path class="cls-7" d="M263.31,89.81a2,2,0,0,1-.12,2.79,1.78,1.78,0,1,1-2.62-2.23A2,2,0,0,1,263.31,89.81Z" transform="translate(-0.94 -15.27)"/><polyline class="cls-16" points="17.25 286.6 152.21 286.6 152.21 335.43"/><polyline class="cls-16" points="23.21 294.65 138.93 294.65 138.93 337.25"/><rect class="cls-17" x="237.78" y="184.01" width="151.89" height="7.77"/><path class="cls-6" d="M274.92,336.61s-24.67-97.44,7.75-118.2c35.05-22.43,38.16,55.23,27.41,86.18C296.34,344.16,280.31,360.48,274.92,336.61Z" transform="translate(-0.94 -15.27)"/><path class="cls-6" d="M358.75,217.63s-32.75,18.08-38,63.9,51.89-19.53,59.12-39.71S373.22,212.18,358.75,217.63Z" transform="translate(-0.94 -15.27)"/><path class="cls-18" d="M293.3,224.69s7.35,125.62,19.35,165.53c0,0-14.32-49.53,13.89-97.4s41.25-62.62,41.25-62.62" transform="translate(-0.94 -15.27)"/><path class="cls-19" d="M57.4,259.14S40,254.4,30.8,245.33,17,226,17.91,224.33c1.42-2.58,7.48,9.35,7.73,8.91s-6.9-13.13-5.75-17,8.58,13.08,9.47,12.51-9.15-16.42-6.63-19.6c1.36-1.72,3.9,4.27,7.13,9.17,3,4.53,5.89,8.48,6,8.3.21-.37-8.45-15.56-5.54-17.26,1.8-1.05,11.65,19.37,20.6,23.65,1.82.87,20.35,4.52,28.09,4.42Z" transform="translate(-0.94 -15.27)"/><path class="cls-19" d="M52.65,237.78s-5.52-13.41-3.15-16.91,7.1,12.78,13,15.58S52.65,237.78,52.65,237.78Z" transform="translate(-0.94 -15.27)"/><path class="cls-6" d="M166.26,163.83s-6.55,150.56-9.65,178.09h58.26S225,178.67,225,170.55,166.26,163.83,166.26,163.83Z" transform="translate(-0.94 -15.27)"/><path class="cls-20" d="M167.71,163.73s-16,1.8-25.44,7.5c-19.17,11.52-15.89,37.49-33.37,59.19C97,245.24,69.33,233,62.79,226.47c0,0-13.08,25.94-13.08,36.31,0,0,20.86,17.48,40.25,21.53,29.42,6.16,47.42-16.64,47.42-16.64l-3.67,73.19,30.12.89s4.83-46.72,4.83-80.8C168.66,225.69,167.71,163.73,167.71,163.73Z" transform="translate(-0.94 -15.27)"/><path class="cls-20" d="M190.8,343.91s9.35-139.9,6.53-162.57c-2.55-20.46,11.92-18.12,11.92-18.12s37.55,24,37.82,29.41,7.77,59.79,3.78,75.28,4,79.44,4,79.44Z" transform="translate(-0.94 -15.27)"/><rect class="cls-17" x="73.37" y="177.3" width="43.52" height="1.28" transform="translate(22.8 351.39) rotate(-131.15)"/><rect class="cls-21" x="100.39" y="198.88" width="33.59" height="8.58" rx="2.44" transform="translate(40.37 409.83) rotate(-131.15)"/><polygon class="cls-22" points="231.73 303.65 264.67 341.34 273.46 352 215.48 317.86 231.73 303.65"/><polygon class="cls-21" points="263.69 334.86 267.33 339.02 270.8 354.32 267.17 350.17 263.69 334.86"/><path class="cls-22" d="M156.37,185h32.22a0,0,0,0,1,0,0V341.83a6.09,6.09,0,0,1-6.09,6.09h-20a6.09,6.09,0,0,1-6.09-6.09V185a0,0,0,0,1,0,0Z" transform="translate(476.75 338.31) rotate(138.85)"/><path class="cls-17" d="M111.65,220.85l67.86,78.65,24.39-21.05L136,199.8a7.19,7.19,0,0,0-10.15-.74l-13.5,11.64A7.19,7.19,0,0,0,111.65,220.85Z" transform="translate(-0.94 -15.27)"/><rect class="cls-21" x="220.66" y="306.22" width="8.64" height="40.61" transform="translate(126.22 695.52) rotate(-131.15)"/><rect class="cls-23" x="125.19" y="203.08" width="1.18" height="18.99" transform="translate(46.06 431.41) rotate(-130.79)"/><rect class="cls-23" x="138.08" y="217.82" width="1.18" height="18.99" transform="translate(56.22 465.54) rotate(-130.79)"/><rect class="cls-23" x="150.96" y="232.56" width="1.18" height="18.99" transform="translate(66.34 499.66) rotate(-130.79)"/><rect class="cls-23" x="163.84" y="247.31" width="1.18" height="18.99" transform="translate(76.48 533.79) rotate(-130.79)"/><rect class="cls-23" x="176.73" y="262.05" width="1.18" height="18.99" transform="translate(86.62 567.92) rotate(-130.79)"/><rect class="cls-23" x="189.61" y="276.79" width="1.18" height="18.99" transform="translate(96.74 602.05) rotate(-130.79)"/><rect class="cls-23" x="202.5" y="291.54" width="1.18" height="18.99" transform="translate(106.92 636.19) rotate(-130.79)"/><rect class="cls-23" x="215.38" y="306.28" width="1.18" height="18.99" transform="translate(117.04 670.31) rotate(-130.79)"/><path class="cls-19" d="M232.1,272.45s-21.17-4.31-33.78-1.36-24.19,6.89-24,9.82,17.22-3.34,17.2-2.84-13.12,6-14.16,9.89,15.24-6.22,15.71-5.26-14.2,10.05-13.07,11.92,16.82-6,16.8-5.57S183.61,298,184.89,299.6s23.23-7,25.25-6.89,22.56,5.42,29.12,9.53Z" transform="translate(-0.94 -15.27)"/><path class="cls-20" d="M209.25,163.22a87.68,87.68,0,0,1,24.13,7.33c14.59,7.17,59.08,49.61,59.08,97.42s-50.65,35.62-73.58,30.21c0,0-.39-26.61,2.32-32.92,0,0,26.27-.56,31.12-5.41Z" transform="translate(-0.94 -15.27)"/><path class="cls-24" d="M238.61,216.5s4-35.24-14.51-38.09c-18.14-2.8-19.88,29-16.57,37.85" transform="translate(-0.94 -15.27)"/><path class="cls-25" d="M238.72,215.34s-4.35,24-17,28.51-17.87-5.07-17.87-5.07" transform="translate(-0.94 -15.27)"/><path class="cls-25" d="M242.37,238.72s-4.08,7.2-13.45,5.14S209,230,207.33,215.1" transform="translate(-0.94 -15.27)"/><path class="cls-11" d="M239.59,238.85a2.79,2.79,0,1,0,2.66-2.91A2.79,2.79,0,0,0,239.59,238.85Z" transform="translate(-0.94 -15.27)"/><path class="cls-11" d="M201,238.91a2.79,2.79,0,1,0,2.66-2.91A2.79,2.79,0,0,0,201,238.91Z" transform="translate(-0.94 -15.27)"/><circle class="cls-26" cx="151.06" cy="201.95" r="8.99" transform="translate(-99.5 150.7) rotate(-45)"/><path class="cls-11" d="M156.65,202a5.59,5.59,0,1,1-5.59-5.59A5.59,5.59,0,0,1,156.65,202Z" transform="translate(-0.94 -15.27)"/><path class="cls-24" d="M151.06,194.25s1.59-36.42,31-38.76c37.59-3,42.06,22.92,42.06,22.92" transform="translate(-0.94 -15.27)"/><path class="cls-27" d="M159,87.79s-5.69,1.35-6.43,12.18c-.71,10.45,6.23,14.21,3.53,21.32-1.87,4.92-5.18,6.42-8.12,11.57-2.81,4.93-3.17,11.22-.51,14.2,10.39,11.61,41.44,10.22,49.71,4.11S159,87.79,159,87.79Z" transform="translate(-0.94 -15.27)"/><path class="cls-27" d="M204.45,95s-27.8,1.35-44.14,1.35-13.69-23.14,0-20.42c8.52,1.69,10-1.7,14-5.31,6.81-6.18,17.92-8.23,26.15,0A14,14,0,0,0,207.64,76c4.55,1.34,6.65-.74,13.33,2.6,8.38,4.18,2,13.83,4,20.52.83,2.76,7.2,1.62,8.06,8.23,1.07,8.23-5.23,9.15-6.22,15.92-.61,4.16.48,9,5.65,14.63,9.16,10-7.49,22.83-41.67,15.44C163.15,147.3,204.45,95,204.45,95Z" transform="translate(-0.94 -15.27)"/><path class="cls-28" d="M200.75,113.13s5.34-8.63,10.82-6.57,3.67,11.72-3.8,15.52-10.63,2.51-10.63,2.51Z" transform="translate(-0.94 -15.27)"/><path class="cls-29" d="M200.77,147.69c0-9.37,1-26,2.51-34.91h-4.76L177,132s5.07,18.54,0,25.75c-4.55,6.48-10.73,6.1-10.73,6.1s.33,9.81,13,16.37c7.76,4,31-2.88,30-17C209.25,163.22,200.77,160.05,200.77,147.69Z" transform="translate(-0.94 -15.27)"/><path class="cls-19" d="M181.66,76.86a24.9,24.9,0,0,0-20.28,16,35.4,35.4,0,0,0-1.07,3.55c-3.67,14.88-8.95,40,14.1,49.07,0,0,23.38-1.74,28.21-19.7,0,0,2.51-16.52,1.83-30.72,0,0-1.06-18.16-22.79-18.16Z" transform="translate(-0.94 -15.27)"/><path class="cls-27" d="M163.62,104.19c-.35,1.75-1.57,3-2.74,2.75s-1.84-1.83-1.5-3.58,1.57-3,2.74-2.74S164,102.45,163.62,104.19Z" transform="translate(-0.94 -15.27)"/><path class="cls-27" d="M180.18,106.66c-.34,1.75-1.57,3-2.74,2.74s-1.83-1.83-1.49-3.57,1.57-3,2.74-2.74S180.53,104.92,180.18,106.66Z" transform="translate(-0.94 -15.27)"/><path class="cls-30" d="M166.55,107.9s-1.86,5-5.34,6.31,3.41,4.31,5.34,3.22S166.55,107.9,166.55,107.9Z" transform="translate(-0.94 -15.27)"/><path class="cls-27" d="M177.57,98.56c-4.21.45-1.5-4.16,1.67-4.31,3.41-.16,8.89,1.54,8.89,7.72,0,0,0,.94-1,0A11.16,11.16,0,0,0,177.57,98.56Z" transform="translate(-0.94 -15.27)"/><path class="cls-27" d="M156.39,101.35c-2.78,3.19-3.92-2-1.7-4.3,2.39-2.44,7.57-4.91,11.77-.38,0,0,.6.72-.8.67A11.13,11.13,0,0,0,156.39,101.35Z" transform="translate(-0.94 -15.27)"/><path class="cls-6" d="M157.05,117.67A120.66,120.66,0,0,1,176.62,120c7.51,1.77,16.52-2.22,27.55-9.62l-.16,2.71a25,25,0,0,1-4.65,2.86c-2,1-4.36,2.16-6.77,3.4-3.79,1.94-7.54,3.49-8.58,5.61-2.76,5.6,6.45,4.14,18.83-.89l-.29,2.21s-2.34,2.7-11,5.43c-7,2.22-4.09,12.82-15.87,13.89-10,.89-16.09-8.19-18-15.27A28,28,0,0,1,157.05,117.67Z" transform="translate(-0.94 -15.27)"/><path class="cls-27" d="M210.6,92.36,207.89,106s-2.79,5.93-5.2,5.2-2.42-13.88-5.55-17-29.28,9.79-36.83,2.23,5.31-24,21.46-22.61S210.6,85.09,210.6,92.36Z" transform="translate(-0.94 -15.27)"/><path class="cls-31" d="M221.2,265.26s27-.39,31.12-5.41c2.52-3.05-4.34-17.79-4.34-17.79" transform="translate(-0.94 -15.27)"/><path class="cls-32" d="M156,94.87a23.92,23.92,0,0,0-1.87,12.59c.84,7.27,4.56,11.8-4.74,18.42C137.12,134.6,144,146,144,146" transform="translate(-0.94 -15.27)"/><path class="cls-32" d="M228.67,117.14a7.57,7.57,0,0,0-.65,9.08c3,5.29,14.66,10.26,12.63,18.26" transform="translate(-0.94 -15.27)"/><path class="cls-6" d="M40.07,176.49c-4.16-2.6-9.66-.45-12,3.86a30.44,30.44,0,0,0-3.5,14.7,71.26,71.26,0,0,0,.92,10.82l25.44-3.45C49.52,191,45.42,179.84,40.07,176.49Z" transform="translate(-0.94 -15.27)"/><path class="cls-33" d="M46.72,195.81c-2-8.31-5.35-15.45-9.44-18" transform="translate(-0.94 -15.27)"/><path class="cls-17" d="M25.49,205.87c2.07,13.18,7.7,27.62,17.2,25.34,7.9-1.89,9.9-15.5,8.24-28.79Z" transform="translate(-0.94 -15.27)"/><path class="cls-34" d="M29.85,214.44c2.8,8.94,7.37,15.93,13.78,14.32" transform="translate(-0.94 -15.27)"/></g></g></g></g></svg>